HIERARCHY
ROOT Hips
{
	OFFSET 0.000000 8.830580 0.000000
	CHANNELS 6 Xposition Yposition Zposition Zrotation Yrotation Xrotation 
	JOINT Spine
	{
		OFFSET 0.000000 0.010000 0.000000
		CHANNELS 3 Zrotation Yrotation Xrotation
		JOINT Spine1
		{
			OFFSET 0.000000 2.459130 0.000000
			CHANNELS 3 Zrotation Yrotation Xrotation
			JOINT Neck
			{
				OFFSET 0.000000 2.484630 0.000000
				CHANNELS 3 Zrotation Yrotation Xrotation
				JOINT Head_virtual
				{
					OFFSET 0.000000 0.000000 0.000000
					CHANNELS 3 Zrotation Yrotation Xrotation
					JOINT Head
					{
						OFFSET 0.000000 0.927525 0.000000
						CHANNELS 3 Zrotation Yrotation Xrotation
						End Site
						{
							OFFSET 0.000000 0.000000 0.000000
						}
					}
				}
				JOINT LeftUpArm_virtual
				{
					OFFSET 0.000000 0.000000 0.000000
					CHANNELS 3 Zrotation Yrotation Xrotation
					JOINT LeftUpArm
					{
						OFFSET 1.248820 0.000000 0.000000
						CHANNELS 3 Zrotation Yrotation Xrotation
						JOINT LeftForeArm
						{
							OFFSET 2.597580 0.000000 0.000000
							CHANNELS 3 Zrotation Yrotation Xrotation
							JOINT LeftHand
							{
								OFFSET 2.455420 0.000000 0.000000
								CHANNELS 3 Zrotation Yrotation Xrotation
								End Site
								{
									OFFSET 0.000000 0.000000 0.000000
								}
							}
						}
					}
				}
				JOINT RightUpArm_virtual
				{
					OFFSET -0.000000 -0.000000 -0.000000
					CHANNELS 3 Zrotation Yrotation Xrotation
					JOINT RightUpArm
					{
						OFFSET -1.248820 -0.000000 -0.000000
						CHANNELS 3 Zrotation Yrotation Xrotation
						JOINT RightForeArm
						{
							OFFSET -2.597580 -0.000000 -0.000000
							CHANNELS 3 Zrotation Yrotation Xrotation
							JOINT RightHand
							{
								OFFSET -2.455420 -0.000000 -0.000000
								CHANNELS 3 Zrotation Yrotation Xrotation
								End Site
								{
									OFFSET 0.000000 0.000000 0.000000
								}
							}
						}
					}
				}
			}
		}
	}
	JOINT LeftUpLeg
	{
		OFFSET 1.271939 0.000000 0.000000
		CHANNELS 3 Zrotation Yrotation Xrotation
		JOINT LeftLowLeg
		{
			OFFSET 0.000000 -4.342910 0.000000
			CHANNELS 3 Zrotation Yrotation Xrotation
			JOINT LeftFoot
			{
				OFFSET 0.000000 -4.487670 0.000000
				CHANNELS 3 Zrotation Yrotation Xrotation
				JOINT LeftToeBase
				{
					OFFSET 0.000000 0.000000 1.515070
					CHANNELS 3 Zrotation Yrotation Xrotation
					End Site
					{
						OFFSET 0.000000 0.000000 0.000000
					}
				}
			}
		}
	}
	JOINT RightUpLeg
	{
		OFFSET -1.271939 0.000000 0.000000
		CHANNELS 3 Zrotation Yrotation Xrotation
		JOINT RightLowLeg
		{
			OFFSET 0.000000 -4.342910 0.000000
			CHANNELS 3 Zrotation Yrotation Xrotation
			JOINT RightFoot
			{
				OFFSET 0.000000 -4.487670 0.000000
				CHANNELS 3 Zrotation Yrotation Xrotation
				JOINT RightToeBase
				{
					OFFSET 0.000000 0.000000 1.515070
					CHANNELS 3 Zrotation Yrotation Xrotation
					End Site
					{
						OFFSET 0.000000 0.000000 0.000000
					}
				}
			}
		}
	}
}
MOTION
Frames: 11
Frame Time: 0.041667
-15.867428 9.043552 54.330744 -176.745207 -6.568056 -172.951504 7.483241 4.965363 -3.286055 1.156342 -11.213510 4.302875 0.000000 0.000000 0.000000 -18.524148 -22.060634 22.085686 9.710416 27.785659 -94.653461 -28.798500 3.098700 9.757390 -0.527005 -30.201700 6.763630 -180.000000 -77.429001 180.000000 46.490002 -30.321199 35.622898 17.576900 -3.556630 -6.364660 -5.263660 13.133100 -60.213799 0.000000 60.124699 0.000000 -39.537498 -4.680820 -2.324670 17.012887 6.063391 -9.739784 0.000000 0.000000 17.915199 -20.059006 15.125936 10.595692 0.000000 0.000000 -45.760200 -1.111548 -2.979674 -14.059798 0.000000 0.000000 21.185900 15.316351 -4.757263 6.053994 0.000000 0.000000 -37.243299 
-15.811532 9.055777 54.314365 -176.637391 -6.915421 -172.609757 6.884919 4.897040 -3.548339 3.025024 -11.177316 3.937960 0.000000 0.000000 0.000000 -20.468560 -20.382483 21.704705 11.384027 25.900271 -93.847137 -28.833599 3.425220 10.656800 4.874080 -31.909800 -1.116910 180.000000 -79.963997 -180.000000 47.962898 -28.801599 37.350399 17.163401 -3.666920 -5.765270 -2.797990 9.553960 -56.021999 0.000000 59.950001 0.000000 -39.285599 -6.756210 -6.078080 16.482359 7.208234 -10.057917 0.000000 0.000000 17.668501 -23.169637 13.886140 10.164715 0.000000 0.000000 -45.140600 -0.603957 -3.351619 -13.796964 0.000000 0.000000 20.236601 15.119348 -4.713940 6.308776 0.000000 0.000000 -37.244101 
-15.758669 9.065808 54.295778 -176.458868 -7.044152 -172.411279 6.236707 4.824220 -3.677927 4.874988 -11.129637 3.446668 0.000000 0.000000 0.000000 -22.331344 -18.613099 21.547719 12.924324 24.210208 -92.907314 -28.504801 3.745290 10.446800 8.262090 -32.461601 -9.209720 180.000000 -83.435204 -180.000000 44.167599 -28.845100 39.656799 17.140699 -4.406680 -3.600780 -0.836307 7.179980 -52.615799 0.000000 59.125099 0.000000 -38.176899 -6.745220 -9.848290 16.143333 7.664723 -10.186468 0.000000 0.000000 17.755100 -24.792406 12.448879 9.997288 0.000000 0.000000 -44.903200 -0.119395 -3.272220 -13.500727 0.000000 0.000000 19.437099 15.034019 -4.726406 6.567109 0.000000 0.000000 -37.159401 
-15.710087 9.072463 54.276034 -176.196762 -7.091337 -172.412917 5.676329 4.687197 -3.718333 6.460310 -11.165614 3.170461 0.000000 0.000000 0.000000 -23.806615 -16.897965 21.091255 14.334643 22.751339 -91.880387 -28.229799 4.488490 9.896180 11.139800 -32.989300 -16.404499 -180.000000 -86.810699 180.000000 46.366100 -21.208500 37.121300 16.993401 -4.184830 -3.125410 1.802080 3.696700 -46.695000 0.000000 59.155399 0.000000 -35.779701 -9.737020 -13.839900 16.036443 7.358976 -10.218461 0.000000 0.000000 18.323999 -24.417746 10.495271 9.480190 0.000000 0.000000 -44.253201 0.385393 -2.845532 -13.085420 0.000000 0.000000 18.779200 15.080933 -4.954799 6.717788 0.000000 0.000000 -36.985399 
-15.668543 9.078775 54.253016 -175.952546 -6.907010 -172.362929 5.130890 4.543412 -3.803590 7.848915 -11.188575 2.689289 0.000000 0.000000 0.000000 -25.376752 -14.995704 20.873765 15.791367 21.405922 -90.849930 -28.276699 5.599080 9.273340 13.765200 -33.878399 -23.250601 0.000000 -87.640602 0.000000 48.938499 -17.192900 33.641701 17.094999 -4.063890 -1.843620 4.462090 1.377880 -42.607700 0.000000 58.476700 0.000000 -31.688400 -9.792360 -16.491100 16.067256 5.407052 -10.096092 0.000000 0.000000 18.992500 -24.171655 8.373988 8.905394 0.000000 0.000000 -44.987400 0.815259 -2.216764 -12.756908 0.000000 0.000000 18.183500 15.079780 -5.211572 6.874445 0.000000 0.000000 -36.821400 
-15.632835 9.084069 54.228142 -175.711608 -6.625177 -172.300263 4.707002 4.474420 -4.047035 8.798023 -11.152028 2.274429 0.000000 0.000000 0.000000 -26.505814 -13.558486 20.894939 16.824779 20.473362 -89.879406 -28.161100 6.354170 8.573310 15.029700 -34.128399 -29.043600 0.000000 -82.664902 0.000000 49.795502 -11.503100 29.755600 17.356001 -3.744990 -0.560591 7.403270 -0.919883 -38.249199 0.000000 57.679100 0.000000 -29.202801 -9.917460 -18.355301 16.064966 3.587976 -10.048300 0.000000 0.000000 19.955099 -23.276235 5.241419 8.358268 0.000000 0.000000 -44.908600 1.233157 -1.724184 -12.413210 0.000000 0.000000 17.535400 15.078455 -5.379326 7.058273 0.000000 0.000000 -36.702900 
-15.604793 9.088755 54.201374 -175.468888 -6.160323 -172.225755 4.486408 4.591122 -4.377975 9.221029 -10.962084 1.952796 0.000000 0.000000 0.000000 -27.191505 -12.521784 20.841084 17.558836 19.829147 -88.988384 -28.002899 6.686380 8.006960 15.320400 -33.957500 -34.323700 0.000000 -78.240898 0.000000 49.354599 -5.927780 26.999500 18.007200 -3.470160 0.784506 10.205300 -3.068490 -33.137402 0.000000 56.704300 0.000000 -29.890800 -10.967100 -19.716600 15.972049 2.116103 -9.932101 0.000000 0.000000 21.030500 -21.648010 1.870838 7.928203 0.000000 0.000000 -44.997400 1.621207 -1.526399 -12.087354 0.000000 0.000000 16.889700 14.946518 -5.204547 7.382535 0.000000 0.000000 -36.765400 
-15.582761 9.092197 54.176043 -175.274105 -5.595243 -172.246075 4.246861 4.795123 -4.662615 9.467530 -10.682903 1.643757 0.000000 0.000000 0.000000 -27.539942 -11.814463 20.805773 18.001006 19.401500 -88.069792 -27.943501 6.655590 7.284740 14.601200 -33.397301 -38.613998 0.000000 -74.860603 0.000000 47.679501 -0.996099 26.310200 18.947500 -3.167670 2.643210 12.904500 -4.938090 -28.896601 0.000000 55.539799 0.000000 -28.837601 -11.695400 -23.205500 15.720348 1.031458 -9.708218 0.000000 0.000000 22.122200 -20.858410 -1.781876 7.893531 0.000000 0.000000 -45.204901 1.922066 -1.542177 -11.722406 0.000000 0.000000 16.341999 14.804046 -4.760787 7.743037 0.000000 0.000000 -36.753401 
-15.567355 9.094174 54.150832 -175.110697 -4.980284 -172.426464 3.941772 5.009647 -4.866635 9.724828 -10.387478 1.373769 0.000000 0.000000 0.000000 -27.638708 -11.399366 20.757054 18.289008 19.086101 -87.148369 -27.900900 6.363670 6.294770 12.562000 -32.317200 -41.679298 0.000000 -72.899597 0.000000 45.418400 2.808040 27.354900 19.875601 -2.917050 4.994260 15.948200 -6.069450 -26.234400 0.000000 54.058800 0.000000 -26.861200 -12.236600 -25.105801 15.352007 0.071257 -9.318547 0.000000 0.000000 23.227200 -20.204244 -4.594458 7.701708 0.000000 0.000000 -46.180799 2.126515 -1.402468 -11.209001 0.000000 0.000000 15.836400 14.669555 -4.394384 8.024103 0.000000 0.000000 -36.729099 
-15.557978 9.095770 54.129572 -175.008785 -4.448526 -172.688328 3.598063 5.118905 -4.945332 9.904148 -10.180090 0.997129 0.000000 0.000000 0.000000 -27.548772 -11.145186 20.747506 18.397983 18.962191 -86.273347 -27.804800 6.260350 5.379510 9.544250 -31.235001 -43.852200 0.000000 -71.879601 0.000000 44.518101 4.301510 28.743799 20.791599 -2.638730 6.952140 19.102200 -6.803340 -23.361799 0.000000 52.238998 0.000000 -25.152901 -12.927700 -27.525900 14.846718 -1.197437 -8.994270 0.000000 0.000000 24.396999 -18.344312 -5.831915 7.444819 0.000000 0.000000 -45.313601 2.210976 -0.906722 -10.647949 0.000000 0.000000 15.387000 14.709303 -4.367902 8.165357 0.000000 0.000000 -36.606300 
-15.557397 9.096431 54.111189 -174.949695 -3.998825 -172.950223 3.369289 5.272165 -5.007528 9.769856 -9.942218 0.575835 0.000000 0.000000 0.000000 -27.081579 -11.290224 20.774785 18.220365 19.120773 -85.449833 -27.704700 6.126520 4.489520 5.751510 -29.558100 -44.322399 0.000000 -72.379501 0.000000 45.017899 4.347100 29.316000 21.805000 -2.424800 7.594170 22.100401 -7.753930 -19.754900 0.000000 50.323200 0.000000 -23.040100 -13.448300 -29.554100 14.170173 -2.602892 -8.807940 0.000000 0.000000 25.576599 -17.271236 -5.048898 6.867132 0.000000 0.000000 -43.938101 2.218294 -0.328720 -10.120368 0.000000 0.000000 15.014700 14.862492 -4.517460 8.179273 0.000000 0.000000 -36.583700 
